<svg width="568" height="452" viewBox="0 0 568 452" fill="none" xmlns="http://www.w3.org/2000/svg">
<path d="M16.83 404H8.73V339.74H44.64V346.85H16.83V369.62H42.93V376.73H16.83V404ZM72.5899 354.95C78.4699 354.95 82.8199 356.24 85.6399 358.82C88.4599 361.4 89.8699 365.51 89.8699 371.15V404H84.1099L82.5799 397.16H82.2199C80.8399 398.9 79.3999 400.37 77.8999 401.57C76.4599 402.71 74.7799 403.55 72.8599 404.09C70.9999 404.63 68.7199 404.9 66.0199 404.9C63.1399 404.9 60.5299 404.39 58.1899 403.37C55.9099 402.35 54.1099 400.79 52.7899 398.69C51.4699 396.53 50.8099 393.83 50.8099 390.59C50.8099 385.79 52.6999 382.1 56.4799 379.52C60.2599 376.88 66.0799 375.44 73.9399 375.2L82.1299 374.93V372.05C82.1299 368.03 81.2599 365.24 79.5199 363.68C77.7799 362.12 75.3199 361.34 72.1399 361.34C69.6199 361.34 67.2199 361.73 64.9399 362.51C62.6599 363.23 60.5299 364.07 58.5499 365.03L56.1199 359.09C58.2199 357.95 60.7099 356.99 63.5899 356.21C66.4699 355.37 69.4699 354.95 72.5899 354.95ZM74.9299 380.69C68.9299 380.93 64.7599 381.89 62.4199 383.57C60.1399 385.25 58.9999 387.62 58.9999 390.68C58.9999 393.38 59.8099 395.36 61.4299 396.62C63.1099 397.88 65.2399 398.51 67.8199 398.51C71.8999 398.51 75.2899 397.4 77.9899 395.18C80.6899 392.9 82.0399 389.42 82.0399 384.74V380.42L74.9299 380.69ZM136.179 390.68C136.179 393.8 135.399 396.41 133.839 398.51C132.279 400.61 130.059 402.2 127.179 403.28C124.299 404.36 120.879 404.9 116.919 404.9C113.559 404.9 110.649 404.63 108.189 404.09C105.789 403.55 103.659 402.8 101.799 401.84V394.64C103.719 395.6 106.029 396.5 108.729 397.34C111.489 398.12 114.279 398.51 117.099 398.51C121.119 398.51 124.029 397.88 125.829 396.62C127.629 395.3 128.529 393.56 128.529 391.4C128.529 390.2 128.199 389.12 127.539 388.16C126.879 387.2 125.679 386.24 123.939 385.28C122.259 384.32 119.829 383.24 116.649 382.04C113.529 380.84 110.859 379.64 108.639 378.44C106.419 377.24 104.709 375.8 103.509 374.12C102.309 372.44 101.709 370.28 101.709 367.64C101.709 363.56 103.359 360.41 106.659 358.19C110.019 355.97 114.399 354.86 119.799 354.86C122.739 354.86 125.469 355.16 127.989 355.76C130.569 356.3 132.969 357.08 135.189 358.1L132.489 364.4C131.169 363.8 129.759 363.29 128.259 362.87C126.819 362.39 125.349 362.03 123.849 361.79C122.349 361.49 120.819 361.34 119.259 361.34C116.019 361.34 113.529 361.88 111.789 362.96C110.109 363.98 109.269 365.39 109.269 367.19C109.269 368.51 109.659 369.65 110.439 370.61C111.219 371.51 112.509 372.41 114.309 373.31C116.169 374.15 118.629 375.17 121.689 376.37C124.749 377.51 127.359 378.68 129.519 379.88C131.679 381.08 133.329 382.55 134.469 384.29C135.609 385.97 136.179 388.1 136.179 390.68ZM163.946 398.42C165.146 398.42 166.376 398.33 167.636 398.15C168.896 397.91 169.916 397.67 170.696 397.43V403.46C169.856 403.88 168.656 404.21 167.096 404.45C165.536 404.75 164.036 404.9 162.596 404.9C160.076 404.9 157.736 404.48 155.576 403.64C153.476 402.74 151.766 401.21 150.446 399.05C149.126 396.89 148.466 393.86 148.466 389.96V361.88H141.626V358.1L148.556 354.95L151.706 344.69H156.386V355.76H170.336V361.88H156.386V389.78C156.386 392.72 157.076 394.91 158.456 396.35C159.896 397.73 161.726 398.42 163.946 398.42ZM209.785 404L188.635 347.66H188.275C188.395 348.86 188.485 350.39 188.545 352.25C188.665 354.11 188.755 356.15 188.815 358.37C188.875 360.53 188.905 362.75 188.905 365.03V404H181.435V339.74H193.405L213.205 392.39H213.565L233.725 339.74H245.605V404H237.595V364.49C237.595 362.39 237.625 360.32 237.685 358.28C237.745 356.18 237.835 354.23 237.955 352.43C238.075 350.57 238.165 349.01 238.225 347.75H237.865L216.445 404H209.785ZM280.275 354.95C286.155 354.95 290.505 356.24 293.325 358.82C296.145 361.4 297.555 365.51 297.555 371.15V404H291.795L290.265 397.16H289.905C288.525 398.9 287.085 400.37 285.585 401.57C284.145 402.71 282.465 403.55 280.545 404.09C278.685 404.63 276.405 404.9 273.705 404.9C270.825 404.9 268.215 404.39 265.875 403.37C263.595 402.35 261.795 400.79 260.475 398.69C259.155 396.53 258.495 393.83 258.495 390.59C258.495 385.79 260.385 382.1 264.165 379.52C267.945 376.88 273.765 375.44 281.625 375.2L289.815 374.93V372.05C289.815 368.03 288.945 365.24 287.205 363.68C285.465 362.12 283.005 361.34 279.825 361.34C277.305 361.34 274.905 361.73 272.625 362.51C270.345 363.23 268.215 364.07 266.235 365.03L263.805 359.09C265.905 357.95 268.395 356.99 271.275 356.21C274.155 355.37 277.155 354.95 280.275 354.95ZM282.615 380.69C276.615 380.93 272.445 381.89 270.105 383.57C267.825 385.25 266.685 387.62 266.685 390.68C266.685 393.38 267.495 395.36 269.115 396.62C270.795 397.88 272.925 398.51 275.505 398.51C279.585 398.51 282.975 397.4 285.675 395.18C288.375 392.9 289.725 389.42 289.725 384.74V380.42L282.615 380.69ZM335.675 354.86C341.435 354.86 345.785 356.27 348.725 359.09C351.665 361.85 353.135 366.35 353.135 372.59V404H345.305V373.13C345.305 369.23 344.435 366.32 342.695 364.4C340.955 362.48 338.225 361.52 334.505 361.52C329.165 361.52 325.475 363.02 323.435 366.02C321.395 369.02 320.375 373.34 320.375 378.98V404H312.455V355.76H318.845L320.015 362.33H320.465C321.545 360.65 322.865 359.27 324.425 358.19C326.045 357.05 327.815 356.21 329.735 355.67C331.655 355.13 333.635 354.86 335.675 354.86ZM386.359 354.95C392.239 354.95 396.589 356.24 399.409 358.82C402.229 361.4 403.639 365.51 403.639 371.15V404H397.879L396.349 397.16H395.989C394.609 398.9 393.169 400.37 391.669 401.57C390.229 402.71 388.549 403.55 386.629 404.09C384.769 404.63 382.489 404.9 379.789 404.9C376.909 404.9 374.299 404.39 371.959 403.37C369.679 402.35 367.879 400.79 366.559 398.69C365.239 396.53 364.579 393.83 364.579 390.59C364.579 385.79 366.469 382.1 370.249 379.52C374.029 376.88 379.849 375.44 387.709 375.2L395.899 374.93V372.05C395.899 368.03 395.029 365.24 393.289 363.68C391.549 362.12 389.089 361.34 385.909 361.34C383.389 361.34 380.989 361.73 378.709 362.51C376.429 363.23 374.299 364.07 372.319 365.03L369.889 359.09C371.989 357.95 374.479 356.99 377.359 356.21C380.239 355.37 383.239 354.95 386.359 354.95ZM388.699 380.69C382.699 380.93 378.529 381.89 376.189 383.57C373.909 385.25 372.769 387.62 372.769 390.68C372.769 393.38 373.579 395.36 375.199 396.62C376.879 397.88 379.009 398.51 381.589 398.51C385.669 398.51 389.059 397.4 391.759 395.18C394.459 392.9 395.809 389.42 395.809 384.74V380.42L388.699 380.69ZM435.639 354.86C438.819 354.86 441.669 355.46 444.189 356.66C446.769 357.86 448.959 359.69 450.759 362.15H451.209L452.289 355.76H458.589V404.81C458.589 409.37 457.809 413.18 456.249 416.24C454.689 419.36 452.319 421.7 449.139 423.26C445.959 424.82 441.909 425.6 436.989 425.6C433.509 425.6 430.299 425.33 427.359 424.79C424.479 424.31 421.899 423.56 419.619 422.54V415.25C421.179 416.03 422.889 416.69 424.749 417.23C426.609 417.83 428.619 418.28 430.779 418.58C432.939 418.88 435.159 419.03 437.439 419.03C441.579 419.03 444.819 417.8 447.159 415.34C449.559 412.94 450.759 409.64 450.759 405.44V403.55C450.759 402.83 450.789 401.81 450.849 400.49C450.909 399.11 450.969 398.15 451.029 397.61H450.669C448.989 400.07 446.889 401.9 444.369 403.1C441.909 404.3 439.029 404.9 435.729 404.9C429.489 404.9 424.599 402.71 421.059 398.33C417.579 393.95 415.839 387.83 415.839 379.97C415.839 374.81 416.619 370.37 418.179 366.65C419.799 362.87 422.079 359.96 425.019 357.92C427.959 355.88 431.499 354.86 435.639 354.86ZM436.719 361.52C434.019 361.52 431.709 362.24 429.789 363.68C427.929 365.12 426.489 367.22 425.469 369.98C424.509 372.74 424.029 376.1 424.029 380.06C424.029 386 425.109 390.56 427.269 393.74C429.489 396.86 432.699 398.42 436.899 398.42C439.359 398.42 441.459 398.12 443.199 397.52C444.939 396.86 446.379 395.87 447.519 394.55C448.659 393.17 449.499 391.43 450.039 389.33C450.579 387.23 450.849 384.74 450.849 381.86V379.97C450.849 375.59 450.339 372.05 449.319 369.35C448.359 366.65 446.829 364.67 444.729 363.41C442.629 362.15 439.959 361.52 436.719 361.52ZM492.54 354.86C496.68 354.86 500.22 355.76 503.16 357.56C506.16 359.36 508.44 361.91 510 365.21C511.62 368.45 512.43 372.26 512.43 376.64V381.41H479.4C479.52 386.87 480.9 391.04 483.54 393.92C486.24 396.74 489.99 398.15 494.79 398.15C497.85 398.15 500.55 397.88 502.89 397.34C505.29 396.74 507.75 395.9 510.27 394.82V401.75C507.81 402.83 505.38 403.61 502.98 404.09C500.58 404.63 497.73 404.9 494.43 404.9C489.87 404.9 485.82 403.97 482.28 402.11C478.8 400.25 476.07 397.49 474.09 393.83C472.17 390.11 471.21 385.58 471.21 380.24C471.21 374.96 472.08 370.43 473.82 366.65C475.62 362.87 478.11 359.96 481.29 357.92C484.53 355.88 488.28 354.86 492.54 354.86ZM492.45 361.34C488.67 361.34 485.67 362.57 483.45 365.03C481.29 367.43 480 370.79 479.58 375.11H504.15C504.15 372.35 503.73 369.95 502.89 367.91C502.05 365.87 500.76 364.28 499.02 363.14C497.34 361.94 495.15 361.34 492.45 361.34ZM547.211 354.86C548.111 354.86 549.071 354.92 550.091 355.04C551.171 355.1 552.101 355.22 552.881 355.4L551.891 362.69C551.111 362.51 550.241 362.36 549.281 362.24C548.381 362.12 547.511 362.06 546.671 362.06C544.811 362.06 543.041 362.45 541.361 363.23C539.681 364.01 538.181 365.12 536.861 366.56C535.541 367.94 534.491 369.62 533.711 371.6C532.991 373.58 532.631 375.8 532.631 378.26V404H524.711V355.76H531.191L532.091 364.58H532.451C533.471 362.78 534.701 361.16 536.141 359.72C537.581 358.22 539.231 357.05 541.091 356.21C542.951 355.31 544.991 354.86 547.211 354.86Z" fill="#FFFEFE"/>
<path d="M84.45 275H52.95V25.1H192.6V52.75H84.45V141.3H185.95V168.95H84.45V275ZM344.694 275L262.444 55.9H261.044C261.511 60.5667 261.861 66.5167 262.094 73.75C262.561 80.9833 262.911 88.9167 263.144 97.55C263.377 105.95 263.494 114.583 263.494 123.45V275H234.444V25.1H280.994L357.994 229.85H359.394L437.794 25.1H483.994V275H452.844V121.35C452.844 113.183 452.961 105.133 453.194 97.2C453.427 89.0333 453.777 81.45 454.244 74.45C454.711 67.2167 455.061 61.15 455.294 56.25H453.894L370.594 275H344.694Z" fill="white"/>
<path d="M84.45 275H52.95V25.1H192.6V52.75H84.45V141.3H185.95V168.95H84.45V275ZM344.694 275L262.444 55.9H261.044C261.511 60.5667 261.861 66.5167 262.094 73.75C262.561 80.9833 262.911 88.9167 263.144 97.55C263.377 105.95 263.494 114.583 263.494 123.45V275H234.444V25.1H280.994L357.994 229.85H359.394L437.794 25.1H483.994V275H452.844V121.35C452.844 113.183 452.961 105.133 453.194 97.2C453.427 89.0333 453.777 81.45 454.244 74.45C454.711 67.2167 455.061 61.15 455.294 56.25H453.894L370.594 275H344.694Z" fill="white"/>
</svg>
